<svg width="1089" height="1336" viewBox="0 0 1089 1336" fill="none" xmlns="http://www.w3.org/2000/svg">
<path d="M175.5 1251.03H913.5V1336H175.5V1251.03Z" fill="url(#paint0_linear_47_539)" fill-opacity="0.5"/>
<path fill-rule="evenodd" clip-rule="evenodd" d="M913.5 1335.97C914.332 1335.99 915.165 1336 916 1336C1011.27 1336 1088.5 1223.7 1088.5 1085.17C1088.5 946.644 1011.27 834.344 916 834.344C915.165 834.344 914.332 834.353 913.5 834.37V919.314C968.222 919.762 1012.5 993.848 1012.5 1085.17C1012.5 1176.5 968.222 1250.58 913.5 1251.03V1335.97Z" fill="#F8F4FF" fill-opacity="0.5"/>
<path d="M175.5 834.344H913.5V919.311H175.5V834.344Z" fill="#F8F4FF" fill-opacity="0.5"/>
<path fill-rule="evenodd" clip-rule="evenodd" d="M175.5 417.682C174.668 417.664 173.835 417.656 173 417.656C77.7309 417.656 0.499985 529.955 0.499985 668.484C0.499985 807.012 77.7309 919.312 173 919.312C173.835 919.312 174.668 919.303 175.5 919.286L175.5 834.342C120.778 833.893 76.5 759.808 76.5 668.484C76.5 577.159 120.778 503.074 175.5 502.625L175.5 417.682Z" fill="#F8F4FF" fill-opacity="0.5"/>
<path d="M175.5 417.656H913.5V502.623H175.5V417.656Z" fill="#F8F4FF" fill-opacity="0.5"/>
<path fill-rule="evenodd" clip-rule="evenodd" d="M913.5 502.597C914.332 502.614 915.165 502.623 916 502.623C1011.27 502.623 1088.5 390.324 1088.5 251.795C1088.5 113.267 1011.27 0.967285 916 0.967285C915.165 0.967285 914.332 0.975906 913.5 0.99309V85.9365C968.222 86.3853 1012.5 160.471 1012.5 251.795C1012.5 343.119 968.222 417.205 913.5 417.654V502.597Z" fill="#F8F4FF" fill-opacity="0.5"/>
<path d="M175.5 0.967285H913.5V85.9345H175.5V0.967285Z" fill="#F8F4FF" fill-opacity="0.5"/>
<defs>
<linearGradient id="paint0_linear_47_539" x1="913.5" y1="1294.1" x2="567.5" y2="1294.1" gradientUnits="userSpaceOnUse">
<stop stop-color="#F8F4FF"/>
<stop offset="1" stop-color="#F8F4FF" stop-opacity="0"/>
</linearGradient>
</defs>
</svg>
