<svg width="1440" height="627" viewBox="0 0 1440 627" fill="none" xmlns="http://www.w3.org/2000/svg">
<path d="M325.055 296.739C325.365 295.84 326.635 295.84 326.945 296.739L330.223 306.234C330.356 306.62 330.712 306.887 331.121 306.906L340.613 307.356C341.516 307.398 341.903 308.522 341.219 309.112L333.66 315.626C333.372 315.874 333.25 316.264 333.344 316.632L335.899 326.614C336.13 327.519 335.106 328.219 334.347 327.675L326.583 322.108C326.234 321.858 325.766 321.858 325.417 322.108L317.653 327.675C316.894 328.219 315.87 327.519 316.101 326.614L318.656 316.632C318.75 316.264 318.628 315.874 318.34 315.626L310.781 309.112C310.097 308.522 310.484 307.398 311.387 307.356L320.879 306.906C321.288 306.887 321.644 306.62 321.777 306.234L325.055 296.739Z" fill="#F8F4FF" fill-opacity="0.45"/>
<path d="M815.063 143.505C815.387 142.639 816.613 142.639 816.937 143.505L819.965 151.604C820.106 151.98 820.457 152.235 820.858 152.253L829.496 152.63C830.42 152.67 830.799 153.836 830.075 154.412L823.308 159.794C822.994 160.044 822.86 160.457 822.967 160.844L825.278 169.176C825.525 170.067 824.534 170.788 823.762 170.277L816.552 165.505C816.217 165.284 815.783 165.284 815.448 165.505L808.238 170.277C807.466 170.788 806.475 170.067 806.722 169.176L809.033 160.844C809.14 160.457 809.006 160.044 808.692 159.794L801.925 154.412C801.201 153.836 801.58 152.67 802.504 152.63L811.142 152.253C811.543 152.235 811.894 151.98 812.035 151.604L815.063 143.505Z" fill="#F8F4FF" fill-opacity="0.45"/>
<path d="M1062.05 335.739C1062.36 334.84 1063.64 334.84 1063.95 335.739L1067.22 345.234C1067.36 345.62 1067.71 345.887 1068.12 345.906L1077.61 346.356C1078.52 346.398 1078.9 347.522 1078.22 348.112L1070.66 354.626C1070.37 354.874 1070.25 355.264 1070.34 355.632L1072.9 365.614C1073.13 366.519 1072.11 367.219 1071.35 366.675L1063.58 361.108C1063.23 360.858 1062.77 360.858 1062.42 361.108L1054.65 366.675C1053.89 367.219 1052.87 366.519 1053.1 365.614L1055.66 355.632C1055.75 355.264 1055.63 354.874 1055.34 354.626L1047.78 348.112C1047.1 347.522 1047.48 346.398 1048.39 346.356L1057.88 345.906C1058.29 345.887 1058.64 345.62 1058.78 345.234L1062.05 335.739Z" fill="#F8F4FF" fill-opacity="0.45"/>
<path d="M1348.56 111.505C1348.89 110.639 1350.11 110.639 1350.44 111.505L1352.6 117.293C1352.74 117.669 1353.09 117.924 1353.49 117.942L1359.67 118.212C1360.59 118.252 1360.97 119.417 1360.25 119.993L1355.41 123.84C1355.1 124.09 1354.96 124.503 1355.07 124.89L1356.72 130.845C1356.97 131.736 1355.98 132.456 1355.2 131.946L1350.05 128.535C1349.72 128.314 1349.28 128.314 1348.95 128.535L1343.8 131.946C1343.02 132.456 1342.03 131.736 1342.28 130.845L1343.93 124.89C1344.04 124.503 1343.9 124.09 1343.59 123.84L1338.75 119.993C1338.03 119.417 1338.41 118.252 1339.33 118.212L1345.51 117.942C1345.91 117.924 1346.26 117.669 1346.4 117.293L1348.56 111.505Z" fill="#F8F4FF" fill-opacity="0.45"/>
<path d="M500.063 52.5049C500.387 51.6386 501.613 51.6386 501.937 52.5049L504.471 59.2833C504.612 59.6591 504.963 59.9146 505.364 59.9321L512.594 60.248C513.518 60.2884 513.897 61.4538 513.173 62.0296L507.51 66.5348C507.196 66.7846 507.061 67.1979 507.169 67.5846L509.102 74.5582C509.349 75.4495 508.358 76.1697 507.587 75.6593L501.552 71.6653C501.217 71.4438 500.783 71.4438 500.448 71.6653L494.413 75.6593C493.642 76.1697 492.651 75.4495 492.898 74.5582L494.831 67.5846C494.939 67.1979 494.804 66.7846 494.49 66.5348L488.827 62.0296C488.103 61.4538 488.482 60.2884 489.406 60.248L496.636 59.9321C497.037 59.9146 497.388 59.6591 497.529 59.2833L500.063 52.5049Z" fill="#F8F4FF" fill-opacity="0.45"/>
<path d="M424.055 441.739C424.365 440.84 425.635 440.84 425.945 441.739L429.223 451.234C429.356 451.62 429.712 451.887 430.121 451.906L439.613 452.356C440.516 452.398 440.903 453.522 440.219 454.112L432.66 460.626C432.372 460.874 432.25 461.264 432.344 461.632L434.899 471.614C435.13 472.519 434.106 473.219 433.347 472.675L425.583 467.108C425.234 466.858 424.766 466.858 424.417 467.108L416.653 472.675C415.894 473.219 414.87 472.519 415.101 471.614L417.656 461.632C417.75 461.264 417.628 460.874 417.34 460.626L409.781 454.112C409.097 453.522 409.484 452.398 410.387 452.356L419.879 451.906C420.288 451.887 420.644 451.62 420.777 451.234L424.055 441.739Z" fill="#F8F4FF" fill-opacity="0.45"/>
<path d="M133.063 168.505C133.387 167.639 134.613 167.639 134.937 168.505L137.718 175.943C137.859 176.319 138.21 176.575 138.611 176.592L146.545 176.939C147.469 176.979 147.848 178.145 147.124 178.721L140.909 183.665C140.595 183.914 140.461 184.328 140.568 184.714L142.69 192.367C142.937 193.258 141.946 193.979 141.174 193.468L134.552 189.085C134.217 188.864 133.783 188.864 133.448 189.085L126.826 193.468C126.054 193.979 125.063 193.258 125.31 192.367L127.432 184.714C127.539 184.328 127.405 183.914 127.091 183.665L120.876 178.721C120.152 178.145 120.531 176.979 121.455 176.939L129.389 176.592C129.79 176.575 130.141 176.319 130.282 175.943L133.063 168.505Z" fill="#F8F4FF" fill-opacity="0.45"/>
<path d="M1037.05 29.7386C1037.36 28.8403 1038.64 28.8403 1038.95 29.7387L1042.22 39.2336C1042.36 39.6204 1042.71 39.8868 1043.12 39.9062L1052.61 40.3555C1053.52 40.3983 1053.9 41.5219 1053.22 42.1119L1045.66 48.6261C1045.37 48.874 1045.25 49.2636 1045.34 49.6315L1047.9 59.6144C1048.13 60.5188 1047.11 61.219 1046.35 60.675L1038.58 55.1078C1038.23 54.858 1037.77 54.858 1037.42 55.1078L1029.65 60.675C1028.89 61.219 1027.87 60.5188 1028.1 59.6144L1030.66 49.6315C1030.75 49.2636 1030.63 48.874 1030.34 48.6261L1022.78 42.1119C1022.1 41.5219 1022.48 40.3983 1023.39 40.3555L1032.88 39.9062C1033.29 39.8868 1033.64 39.6204 1033.78 39.2336L1037.05 29.7386Z" fill="#F8F4FF" fill-opacity="0.45"/>
<path d="M77.0547 547.739C77.3648 546.84 78.6352 546.84 78.9453 547.739L82.2226 557.234C82.3561 557.62 82.7118 557.887 83.1206 557.906L92.613 558.356C93.5159 558.398 93.9033 559.522 93.2186 560.112L85.6597 566.626C85.372 566.874 85.2496 567.264 85.3437 567.632L87.8989 577.614C88.1304 578.519 87.1062 579.219 86.3475 578.675L78.5827 573.108C78.2344 572.858 77.7656 572.858 77.4173 573.108L69.6525 578.675C68.8938 579.219 67.8696 578.519 68.1011 577.614L70.6563 567.632C70.7504 567.264 70.628 566.874 70.3403 566.626L62.7814 560.112C62.0967 559.522 62.4841 558.398 63.387 558.356L72.8795 557.906C73.2882 557.887 73.6439 557.62 73.7774 557.234L77.0547 547.739Z" fill="#F8F4FF" fill-opacity="0.45"/>
<path d="M1265.56 262.505C1265.89 261.639 1267.11 261.639 1267.44 262.505L1269.85 268.953C1269.99 269.329 1270.34 269.584 1270.74 269.602L1277.62 269.903C1278.54 269.943 1278.92 271.108 1278.2 271.684L1272.81 275.97C1272.5 276.22 1272.36 276.633 1272.47 277.02L1274.31 283.654C1274.56 284.545 1273.56 285.265 1272.79 284.755L1267.05 280.955C1266.72 280.734 1266.28 280.734 1265.95 280.955L1260.21 284.755C1259.44 285.265 1258.44 284.545 1258.69 283.654L1260.53 277.02C1260.64 276.633 1260.5 276.22 1260.19 275.97L1254.8 271.684C1254.08 271.108 1254.46 269.943 1255.38 269.903L1262.26 269.602C1262.66 269.584 1263.01 269.329 1263.15 268.953L1265.56 262.505Z" fill="#F8F4FF" fill-opacity="0.45"/>
<path d="M910.063 567.505C910.387 566.639 911.613 566.639 911.937 567.505L914.471 574.283C914.612 574.659 914.963 574.915 915.364 574.932L922.594 575.248C923.518 575.288 923.897 576.454 923.173 577.03L917.51 581.535C917.196 581.785 917.061 582.198 917.169 582.585L919.102 589.558C919.349 590.449 918.358 591.17 917.587 590.659L911.552 586.665C911.217 586.444 910.783 586.444 910.448 586.665L904.413 590.659C903.642 591.17 902.651 590.449 902.898 589.558L904.831 582.585C904.939 582.198 904.804 581.785 904.49 581.535L898.827 577.03C898.103 576.454 898.482 575.288 899.406 575.248L906.636 574.932C907.037 574.915 907.388 574.659 907.529 574.283L910.063 567.505Z" fill="#F8F4FF" fill-opacity="0.45"/>
<path d="M251.063 25.5049C251.387 24.6386 252.613 24.6386 252.937 25.5049L255.471 32.2833C255.612 32.6591 255.963 32.9146 256.364 32.9321L263.594 33.248C264.518 33.2884 264.897 34.4538 264.173 35.0296L258.51 39.5348C258.196 39.7846 258.061 40.1979 258.169 40.5846L260.102 47.5582C260.349 48.4495 259.358 49.1697 258.587 48.6593L252.552 44.6653C252.217 44.4438 251.783 44.4438 251.448 44.6653L245.413 48.6593C244.642 49.1697 243.651 48.4495 243.898 47.5582L245.831 40.5846C245.939 40.1979 245.804 39.7846 245.49 39.5348L239.827 35.0296C239.103 34.4538 239.482 33.2884 240.406 33.248L247.636 32.9321C248.037 32.9146 248.388 32.6591 248.529 32.2833L251.063 25.5049Z" fill="#F8F4FF" fill-opacity="0.45"/>
<path d="M659.063 340.505C659.387 339.639 660.613 339.639 660.937 340.505L663.471 347.283C663.612 347.659 663.963 347.915 664.364 347.932L671.594 348.248C672.518 348.288 672.897 349.454 672.173 350.03L666.51 354.535C666.196 354.785 666.061 355.198 666.169 355.585L668.102 362.558C668.349 363.449 667.358 364.17 666.587 363.659L660.552 359.665C660.217 359.444 659.783 359.444 659.448 359.665L653.413 363.659C652.642 364.17 651.651 363.449 651.898 362.558L653.831 355.585C653.939 355.198 653.804 354.785 653.49 354.535L647.827 350.03C647.103 349.454 647.482 348.288 648.406 348.248L655.636 347.932C656.037 347.915 656.388 347.659 656.529 347.283L659.063 340.505Z" fill="#F8F4FF" fill-opacity="0.45"/>
<path d="M1380.05 508.739C1380.36 507.84 1381.64 507.84 1381.95 508.739L1385.22 518.234C1385.36 518.62 1385.71 518.887 1386.12 518.906L1395.61 519.356C1396.52 519.398 1396.9 520.522 1396.22 521.112L1388.66 527.626C1388.37 527.874 1388.25 528.264 1388.34 528.632L1390.9 538.614C1391.13 539.519 1390.11 540.219 1389.35 539.675L1381.58 534.108C1381.23 533.858 1380.77 533.858 1380.42 534.108L1372.65 539.675C1371.89 540.219 1370.87 539.519 1371.1 538.614L1373.66 528.632C1373.75 528.264 1373.63 527.874 1373.34 527.626L1365.78 521.112C1365.1 520.522 1365.48 519.398 1366.39 519.356L1375.88 518.906C1376.29 518.887 1376.64 518.62 1376.78 518.234L1380.05 508.739Z" fill="#F8F4FF" fill-opacity="0.45"/>
<path d="M675.063 540.505C675.387 539.639 676.613 539.639 676.937 540.505L679.471 547.283C679.612 547.659 679.963 547.915 680.364 547.932L687.594 548.248C688.518 548.288 688.897 549.454 688.173 550.03L682.51 554.535C682.196 554.785 682.061 555.198 682.169 555.585L684.102 562.558C684.349 563.449 683.358 564.17 682.587 563.659L676.552 559.665C676.217 559.444 675.783 559.444 675.448 559.665L669.413 563.659C668.642 564.17 667.651 563.449 667.898 562.558L669.831 555.585C669.939 555.198 669.804 554.785 669.49 554.535L663.827 550.03C663.103 549.454 663.482 548.288 664.406 548.248L671.636 547.932C672.037 547.915 672.388 547.659 672.529 547.283L675.063 540.505Z" fill="#F8F4FF" fill-opacity="0.45"/>
</svg>
