<svg width="32" height="33" viewBox="0 0 32 33" fill="none" xmlns="http://www.w3.org/2000/svg">
<path fill-rule="evenodd" clip-rule="evenodd" d="M5.81818 0.5C2.60489 0.5 0 3.10489 0 6.31818V26.6818C0 29.8951 2.60489 32.5 5.81818 32.5H26.1818C29.3951 32.5 32 29.8951 32 26.6818V6.31818C32 3.10489 29.3951 0.5 26.1818 0.5H5.81818ZM8.45805 7.93169C10.5621 6.14308 13.2343 5.16218 15.9959 5.16479C18.7583 5.16025 21.4317 6.13978 23.5373 7.92775C25.6429 9.71572 27.0426 12.1952 27.4858 14.9217C27.929 17.6482 27.3865 20.4434 25.9555 22.8062C24.5247 25.1689 22.2989 26.9448 19.6774 27.8152C19.0873 27.9273 18.8992 27.5838 18.8992 27.2735V24.0559C18.9277 23.6628 18.8713 23.2681 18.7341 22.8985C18.5969 22.5289 18.382 22.1931 18.104 21.9137C20.6929 21.6277 23.4103 20.6465 23.4103 16.1797C23.4284 15.0245 23.0001 13.9068 22.2148 13.0592C22.5695 12.0569 22.5283 10.9571 22.0996 9.9841C22.0996 9.9841 21.1305 9.67284 18.9073 11.1766C17.0023 10.6538 14.9916 10.6538 13.0866 11.1766C10.8684 9.67184 9.89121 9.9841 9.89121 9.9841C9.46278 10.9572 9.4223 12.0572 9.77804 13.0592C8.99298 13.9063 8.56415 15.0229 8.58052 16.1778C8.58052 20.6322 11.2938 21.6287 13.8737 21.9237C13.4513 22.3355 13.1897 22.8844 13.1361 23.4719C12.851 23.6322 12.537 23.7343 12.2122 23.7726C11.8875 23.8107 11.5583 23.7841 11.2439 23.6943C10.9294 23.6044 10.6359 23.4532 10.3803 23.2491C10.1247 23.0452 9.91212 22.7925 9.75479 22.5058C9.5688 22.1839 9.31168 21.9087 9.00307 21.7013C8.69447 21.494 8.34255 21.3599 7.9742 21.3093C7.9742 21.3093 6.84036 21.2952 7.89537 22.0167C8.51427 22.4113 8.97164 23.0142 9.18484 23.7164C9.18484 23.7164 9.85281 25.9487 13.0866 25.2475C13.0912 25.9806 13.0888 26.5983 13.0874 26.9774C13.0869 27.1015 13.0866 27.1999 13.0866 27.2686C13.0866 27.5758 12.9026 27.9163 12.3226 27.8152C9.70175 26.9449 7.47647 25.1698 6.0455 22.8079C4.61455 20.446 4.07145 17.6517 4.51354 14.9257C4.95562 12.1998 6.35399 9.72032 8.45805 7.93169Z" fill="#F8F4FF"/>
</svg>
