<svg width="32" height="33" viewBox="0 0 32 33" fill="none" xmlns="http://www.w3.org/2000/svg">
<path fill-rule="evenodd" clip-rule="evenodd" d="M5.81818 0.5C2.60489 0.5 0 3.10489 0 6.31818V26.6818C0 29.8951 2.60489 32.5 5.81818 32.5H26.1818C29.3951 32.5 32 29.8951 32 26.6818V6.31818C32 3.10489 29.3951 0.5 26.1818 0.5H5.81818ZM7.57025 10.5496C8.93955 10.5496 10.0496 9.43955 10.0496 8.07025C10.0496 6.70095 8.93955 5.59091 7.57025 5.59091C6.20095 5.59091 5.09091 6.70095 5.09091 8.07025C5.09091 9.43955 6.20095 10.5496 7.57025 10.5496ZM10.0496 27.4091V12.5331H5.09091V27.4091H10.0496ZM16.4959 12.5331H12.0331V27.4091H16.4959V18.4351C17.0708 17.5001 18.0625 16.5 19.4711 16.5C21.4545 16.5 21.9504 18.4834 21.9504 19.4753V27.4091H26.9091V19.4753C26.9091 16.8177 25.7491 12.5331 21.4545 12.5331C18.7231 12.5331 17.2064 13.5296 16.4959 14.4631V12.5331Z" fill="#F8F4FF"/>
</svg>
